<svg version="1.1" xmlns="http://www.w3.org/2000/svg" xmlns:xlink="http://www.w3.org/1999/xlink" viewBox="0 0 722.5 223.3" xml:space="preserve" wz_dt_ref="true">
  <g>
    <polygon class="st0" points="124.5,134.9 99.3,62.4 90.7,62.4 124.2,158.7 158.1,62.4 149.6,62.4   "></polygon>
      <polygon class="st0" points="240.5,155.9 249,155.9 274.1,83.4 299.3,155.9 307.9,155.9 274.4,59.6   "></polygon>
      <path class="st0" d="M434.7,67.8c-5.9-5-13.1-5.4-19.9-5.4h-16.9V153h8.4v-41.7h8.5c5.9,0,14.4-0.6,20.5-5.9
    c4.8-4,7.8-11.1,7.8-18.4C443.1,79.2,440.1,72.4,434.7,67.8z M429.5,98.8c-4.1,3.7-8.7,4.4-14.5,4.4h-8.8V70.4h7.8
    c5.8,0,10.6,0.2,14.5,3.2c3.8,2.8,6.1,7.7,6.1,13.1C434.7,91.6,432.9,95.7,429.5,98.8z"></path>
      <path class="st0" d="M579.3,61.2c-25.4,0-46.9,21.3-46.9,46.5s21.5,46.5,46.9,46.5s46.9-21.3,46.9-46.5S604.7,61.2,579.3,61.2z
     M579.3,146.1c-20.9,0-38.6-17.6-38.6-38.4s17.7-38.4,38.6-38.4s38.6,17.6,38.6,38.4C617.8,128.5,600.2,146.1,579.3,146.1z"></path>
      <path class="st0" d="M0,223.3h722.5V0H0V223.3z M8.3,8.3h705.8v206.6H8.3V8.3z"></path>
  </g>
</svg>
